<?xml version="1.0" standalone="no"?>
<!DOCTYPE svg PUBLIC "-//W3C//DTD SVG 20010904//EN"
 "http://www.w3.org/TR/2001/REC-SVG-20010904/DTD/svg10.dtd">
<svg version="1.0" xmlns="http://www.w3.org/2000/svg"
 width="512.000000pt" height="512.000000pt" viewBox="0 0 512.000000 512.000000"
 preserveAspectRatio="xMidYMid meet">
<metadata>
Created by potrace 1.11, written by Peter Selinger 2001-2013
</metadata>
<g transform="translate(0.000000,512.000000) scale(0.100000,-0.100000)"
fill="#000000" stroke="none">
<path d="M0 2560 l0 -2560 480 0 480 0 0 640 0 640 200 0 200 0 0 -640 0 -640
200 0 200 0 0 640 0 640 200 0 200 0 0 -640 0 -640 200 0 200 0 0 640 0 640
400 0 400 0 0 -640 0 -640 200 0 200 0 0 640 0 640 200 0 200 0 0 -640 0 -640
480 0 480 0 0 2560 0 2560 -2560 0 -2560 0 0 -2560z m2584 2064 c14 -14 16
-157 16 -1424 0 -1267 -2 -1410 -16 -1424 -19 -20 -29 -20 -48 0 -14 14 -16
157 -16 1424 0 1267 2 1410 16 1424 8 9 19 16 24 16 5 0 16 -7 24 -16z m156
-563 c19 -61 20 -88 20 -860 0 -545 -4 -809 -11 -836 -20 -74 -51 -137 -60
-123 -10 15 -12 1888 -2 1913 5 15 8 14 19 -6 8 -13 23 -53 34 -88z m-300
-861 c0 -561 -4 -941 -9 -945 -16 -9 -49 43 -60 96 -15 69 -15 1629 0 1698 11
53 44 105 60 96 5 -4 9 -384 9 -945z m465 647 c13 -43 15 -144 15 -647 0 -628
-1 -650 -46 -718 -16 -25 -18 -25 -25 -7 -9 24 -11 1410 -2 1444 l6 24 18 -22
c11 -13 26 -46 34 -74z m-637 61 c9 -9 12 -180 12 -709 0 -629 -2 -698 -16
-710 -14 -11 -19 -10 -34 9 -10 12 -21 46 -25 75 -3 28 -5 331 -3 672 3 574 4
623 21 648 19 30 27 33 45 15z m787 -180 l25 -53 0 -475 0 -475 -25 -52 c-26
-57 -39 -66 -49 -30 -8 29 -8 1085 0 1115 10 35 23 26 49 -30z m-951 26 c14
-14 16 -78 16 -554 0 -470 -2 -541 -15 -554 -18 -17 -40 -12 -52 12 -10 20
-17 954 -8 1030 4 28 13 59 21 67 19 19 19 19 38 -1z m1111 -136 l25 -53 0
-365 0 -365 -25 -54 c-47 -99 -50 -75 -53 403 -2 399 2 486 23 486 3 0 17 -24
30 -52z m-1265 13 c6 -13 10 -167 10 -431 0 -264 -4 -418 -10 -431 -16 -29
-48 -24 -57 9 -10 35 -10 809 0 845 9 32 41 37 57 8z m1425 -93 c19 -31 20
-52 20 -338 0 -286 -1 -307 -20 -337 -10 -18 -25 -33 -31 -33 -20 0 -24 56
-24 370 0 314 4 370 24 370 6 0 21 -15 31 -32z m-1585 -4 c6 -14 10 -158 10
-334 0 -176 -4 -320 -10 -334 -13 -36 -47 -35 -57 2 -10 35 -10 629 0 665 10
36 44 37 57 1z m1760 -103 c5 -20 10 -124 10 -231 0 -204 -7 -255 -40 -285
-19 -17 -20 -17 -30 9 -6 16 -10 130 -10 276 0 146 4 260 10 276 10 26 11 26
30 9 11 -10 24 -34 30 -54z m-1926 37 c13 -19 16 -62 16 -268 0 -206 -3 -249
-16 -268 -22 -32 -42 -27 -53 16 -14 48 -14 456 0 505 11 42 31 47 53 15z
m2083 -85 c9 -22 13 -79 13 -183 0 -155 -9 -200 -43 -229 -29 -23 -37 28 -37
229 0 201 8 252 37 229 9 -8 22 -28 30 -46z m-2240 17 c9 -17 13 -79 13 -200
0 -181 -8 -221 -42 -228 -27 -5 -38 59 -38 228 0 169 11 233 38 228 9 -2 22
-14 29 -28z m2404 -80 c6 -20 9 -83 7 -142 -2 -88 -7 -111 -23 -134 -28 -37
-37 -35 -48 6 -11 42 -6 310 6 328 13 19 44 -12 58 -58z m-2564 30 c17 -34 17
-266 0 -300 -20 -40 -49 -32 -60 15 -10 47 -5 284 7 303 12 19 39 10 53 -18z
m2724 -67 c17 -53 8 -167 -17 -199 -27 -37 -36 -35 -47 6 -10 41 -5 229 7 248
12 19 42 -11 57 -55z m-2884 27 c17 -33 17 -187 0 -220 -20 -40 -49 -32 -60
15 -9 44 -4 206 8 224 11 19 38 8 52 -19z m3049 -75 c8 -47 -2 -97 -28 -130
-15 -19 -24 -23 -32 -15 -13 13 -15 185 -3 215 8 19 9 19 32 -8 13 -15 27 -43
31 -62z m-3230 67 c48 -32 45 -188 -4 -207 -27 -10 -37 14 -37 98 0 105 9 130
41 109z m-135 -60 c15 -38 4 -94 -22 -115 -17 -14 -24 -15 -30 -5 -16 25 -20
87 -9 127 10 37 13 40 31 31 11 -6 25 -23 30 -38z m3512 5 c21 -41 17 -78 -13
-117 -28 -37 -45 -14 -45 63 0 104 21 124 58 54z m-3688 3 c25 -28 23 -76 -3
-103 -17 -16 -25 -18 -33 -10 -13 13 -17 88 -7 116 9 22 21 22 43 -3z m3840 0
c25 -28 23 -76 -3 -103 -17 -16 -25 -18 -33 -10 -13 13 -17 88 -7 116 9 22 21
22 43 -3z m-3989 -25 c15 -23 15 -27 0 -50 -9 -14 -23 -25 -31 -25 -9 0 -21
11 -27 25 -13 30 3 75 27 75 8 0 22 -11 31 -25z m4160 0 c15 -23 15 -27 0 -50
-33 -51 -76 -15 -60 50 4 16 13 25 25 25 10 0 26 -11 35 -25z m-4485 -5 l24
-20 -24 -20 c-13 -11 -27 -20 -32 -20 -17 0 -30 39 -19 60 6 11 15 20 19 20 5
0 19 -9 32 -20z m164 0 c17 -19 17 -21 0 -40 -35 -39 -72 -13 -58 40 3 11 13
20 23 20 9 0 25 -9 35 -20z m4480 0 c17 -19 17 -21 0 -40 -35 -39 -72 -13 -58
40 3 11 13 20 23 20 9 0 25 -9 35 -20z m156 0 l24 -20 -24 -20 c-13 -11 -27
-20 -32 -20 -4 0 -13 9 -19 20 -11 21 2 60 19 60 5 0 19 -9 32 -20z"/>
</g>
</svg>
